<svg width="674" height="247" viewBox="0 0 674 247" fill="none" xmlns="http://www.w3.org/2000/svg">
<path fill-rule="evenodd" clip-rule="evenodd" d="M222.858 1.63931C222.487 0.864902 223.539 0.207318 224.072 0.881173V0.881173C243.454 25.3923 259.441 52.4037 271.603 81.1847C271.88 81.8416 272.108 82.5186 272.288 83.2089L275.418 95.2592C277.187 102.069 278.389 108.993 279.023 115.96C279.44 120.537 283.169 124.201 287.764 124.201V124.201H374.813L379.135 124.045C387.53 123.741 394.114 116.58 392.791 108.284C392.351 105.524 391.833 102.773 391.238 100.036L384.805 67.4274C380.401 49.3523 374.299 31.7341 366.579 14.8079L360.509 1.50081C360.183 0.786424 361.159 0.206511 361.631 0.834342V0.834342C381.281 26.998 397.367 55.6578 409.465 86.0607L412.821 99.6651C413.536 102.562 414.158 105.477 414.686 108.405C416.116 116.327 422.872 122.46 430.916 122.169L444.936 121.661L466.309 120.322L489.355 117.888L497.523 116.626C503.749 115.663 508.021 109.939 508.021 103.639V103.639C508.021 92.5219 509.938 81.4883 513.687 71.0228L520.363 52.3854C520.737 51.343 521.853 50.7676 522.919 51.0682L589.304 69.7978L628.31 85.4837C639.031 89.7951 648.712 96.3398 656.707 104.683C662.316 110.535 667.02 117.193 670.661 124.436L672.703 128.497C675.215 133.492 673.645 139.575 669.029 142.73L664.098 146.101C651.139 154.96 637.077 162.086 622.269 167.296L589.304 178.896L543.814 192.148C542.516 192.526 541.126 191.992 540.416 190.842L530.936 175.492C524.354 164.836 519.101 153.414 515.293 141.481L514.678 139.554C514.602 139.317 514.252 139.372 514.252 139.621V139.621C514.252 139.751 514.138 139.853 514.008 139.837L489.355 136.903L444.936 133.939L432.422 133.561C423.949 133.305 417.026 140.136 416.119 148.565C415.769 151.808 415.307 155.043 414.732 158.264L413.199 166.853C410.724 180.715 406.151 194.118 399.638 206.602C394.062 217.291 387.114 227.207 378.972 236.098L370.211 245.666C368.242 247.816 364.806 245.448 366.114 242.843V242.843C378.499 218.18 386.975 191.742 391.238 164.475L392.419 157.72C393.042 154.161 393.534 150.585 393.898 147.001C394.717 138.914 388.186 132.226 380.061 131.98L374.813 131.822H287.764V131.822C283.149 131.822 279.396 135.489 278.95 140.082C278.581 143.876 278.044 147.658 277.337 151.418L275.867 159.236C273.318 172.801 268.633 185.876 261.988 197.974C256.43 208.092 249.555 217.429 241.543 225.74L232.486 235.134C230.451 237.244 227.056 234.786 228.426 232.194V232.194C240.806 208.778 249.313 183.511 253.615 157.375L254.803 150.919C255.02 149.74 255.222 148.558 255.408 147.375C256.732 138.949 249.84 131.822 241.311 131.822H221.672H155.579V131.822C149.326 131.822 144.237 136.747 143.334 142.935C143.05 144.884 142.715 146.828 142.33 148.766L140.953 155.698C138.343 168.831 133.58 181.443 126.857 193.023C121.382 202.453 114.663 211.103 106.88 218.74L97.5977 227.849C95.5152 229.892 92.202 227.362 93.6253 224.815V224.815C105.862 202.92 114.308 179.113 118.607 154.401L119.791 148.32V148.32C121.414 139.984 114.121 133.061 105.68 133.994L100.429 134.574L72.0188 138.955C69.2202 139.387 66.9813 141.432 65.9039 144.051V144.051C63.5964 149.66 60.0822 154.692 55.611 158.79L41.824 171.425C37.0707 175.782 31.9881 179.764 26.6214 183.338L9.99316 194.41C5.67923 197.283 0.658847 191.915 3.81349 187.803V187.803C10.2411 179.424 14.3122 169.48 15.6051 158.999L17.402 144.434C17.7682 141.465 19.0662 138.689 21.1094 136.505C25.3585 131.962 26.1404 125.176 23.0358 119.786L16.4124 108.286C14.5716 105.09 13.2959 101.6 12.6415 97.9702L10.8614 88.0954C9.10687 78.3629 5.75671 68.9871 0.946153 60.3467V60.3467C-2.67111 53.8495 4.82037 46.8442 11.0606 50.8886L15.1998 53.5713C28.0854 61.9227 39.3765 72.5075 48.5418 84.8275L58.2303 97.8508C60.9972 101.57 63.2427 105.65 64.9043 109.978L66.2654 113.522V113.522C66.409 113.896 66.7279 114.177 67.119 114.264L100.429 121.661L105.397 122.168C114.284 123.075 122.064 116.028 120.781 107.187C120.233 103.412 119.508 99.657 118.607 95.9346L112.112 66.349C107.668 49.9558 101.554 34.0617 93.8662 18.9162L88.1602 7.67477C87.7388 6.84459 88.8607 6.10478 89.4578 6.81912V6.81912C108.557 29.6693 124.406 55.0474 136.556 82.2327C136.86 82.9127 137.11 83.6157 137.307 84.334L140.423 95.6808C142.003 101.434 143.129 107.284 143.801 113.176C144.496 119.273 149.443 124.201 155.579 124.201V124.201H221.672H241.841C250.208 124.201 257.04 117.335 255.996 109.034C255.428 104.519 254.634 100.027 253.615 95.5746L247.119 64.3021C242.674 46.9706 236.534 30.1185 228.789 13.9893L222.858 1.63931Z" fill="#052E87"/>
</svg>
